<svg width="50" height="48" viewBox="0 0 50 28" fill="none" xmlns="http://www.w3.org/2000/svg"><path fill-rule="evenodd" clip-rule="evenodd" d="M20.3236 24.2297C20.0884 23.5294 19.961 22.7796 19.961 22V5C19.961 3.51275 20.4248 2.13384 21.2157 1L3.00548 1C0.525187 1 -0.883714 3.83871 0.616144 5.81413L15.0716 24.8531C16.2722 26.4342 18.6498 26.4342 19.8503 24.8531L20.3236 24.2297Z" fill="white"></path><path d="M26.9609 26C24.7518 26 22.9609 24.2091 22.9609 22V5C22.9609 2.79086 24.7518 1 26.9609 1H34.5619C36.5999 1 38.3113 1.25635 39.6961 1.76904C41.0896 2.28174 42.1391 3.00602 42.8445 3.94189C43.5587 4.87777 43.9158 5.98047 43.9158 7.25C43.9158 8.1696 43.6981 9.00781 43.2626 9.76465C42.8358 10.5215 42.2349 11.1562 41.4597 11.6689C40.6846 12.1735 39.7788 12.5234 38.7424 12.7188V12.9629C39.8921 13.0036 40.9372 13.2762 41.8778 13.7808C42.8184 14.2772 43.5674 14.9648 44.1248 15.8437C44.6822 16.7145 44.9609 17.7399 44.9609 18.9199C44.9609 20.2871 44.5777 21.5037 43.8113 22.5698C43.0536 23.6359 41.9736 24.4741 40.5714 25.0845C39.1692 25.6948 37.497 26 35.5548 26H26.9609Z" fill="white"></path></svg>
